<svg width="19" height="15" viewBox="0 0 19 15" fill="none" xmlns="http://www.w3.org/2000/svg">
<path fill-rule="evenodd" clip-rule="evenodd" d="M18.7833 2.37767L18.0311 1.62354L11.0557 8.59894C10.1843 9.46997 8.71843 9.46997 7.84462 8.59894L0.871592 1.66396L0.117065 2.4161L5.30959 7.60823L0.117065 12.8004L0.871592 13.5525L6.06134 8.36038L7.09287 9.39151C7.72772 10.0264 8.55833 10.3822 9.42976 10.3822C10.3036 10.3822 11.1342 10.0264 11.7694 9.39151L12.7982 8.36038L17.9907 13.5525L18.7425 12.8004L13.5527 7.60823L18.7833 2.37767Z" fill="#545454"/>
<path fill-rule="evenodd" clip-rule="evenodd" d="M1.62346 1.46581C1.30603 1.46581 1.06985 1.70438 1.06985 2.01982V13.1966C1.06985 13.5121 1.30603 13.7506 1.62346 13.7506H17.2767C17.5945 13.7506 17.8327 13.5121 17.8327 13.1966V2.01982C17.8327 1.70438 17.5945 1.46581 17.2767 1.46581H1.62346ZM17.3175 14.8991H1.66427C0.752027 14.8991 -0.00012207 14.1469 -0.00012207 13.2351V2.06024C-0.00012207 1.14839 0.752027 0.39624 1.66427 0.39624H17.3175C18.229 0.39624 18.9815 1.14839 18.9815 2.06024V13.2351C18.9815 14.1469 18.229 14.8991 17.3175 14.8991Z" fill="#545454"/>
</svg>
