<svg width="15" height="20" viewBox="0 0 15 20" fill="none" xmlns="http://www.w3.org/2000/svg">
<path fill-rule="evenodd" clip-rule="evenodd" d="M13.0217 8.85653H11.7972V6.24551C11.7972 3.7149 9.71439 1.63245 7.1846 1.63245C4.65439 1.63245 2.57154 3.7149 2.57154 6.24551V8.85653H1.34705V6.24551C1.34705 3.01939 3.96092 0.407959 7.1846 0.407959C10.4083 0.407959 13.0217 3.01939 13.0217 6.24551V8.85653Z" fill="#545454"/>
<path fill-rule="evenodd" clip-rule="evenodd" d="M1.95947 9.51055C1.59335 9.51055 1.30763 9.79585 1.30763 10.1624V18.0003C1.30763 18.3673 1.59335 18.6526 1.95947 18.6526H12.4097C12.7758 18.6526 13.0611 18.3673 13.0611 18.0003V10.1624C13.0611 9.79585 12.7758 9.51055 12.4097 9.51055H1.95947ZM12.4097 19.9583H1.95947C0.89947 19.9583 -0.00012207 19.0608 -0.00012207 18.0003V10.1624C-0.00012207 9.10239 0.89947 8.20483 1.95947 8.20483H12.4097C13.4693 8.20483 14.3689 9.10239 14.3689 10.1624V18.0003C14.3689 19.1024 13.4693 19.9583 12.4097 19.9583Z" fill="#545454"/>
<path fill-rule="evenodd" clip-rule="evenodd" d="M8.49005 12.1221C8.49005 12.8572 7.91984 13.4278 7.18433 13.4278C6.44923 13.4278 5.87903 12.8572 5.87903 12.1221C5.87903 11.387 6.44923 10.8164 7.18433 10.8164C7.91984 10.8164 8.49005 11.4287 8.49005 12.1221Z" fill="#545454"/>
<path fill-rule="evenodd" clip-rule="evenodd" d="M7.51152 12.1221H6.85724L6.20581 16.0413H8.16336L7.51152 12.1221Z" fill="#545454"/>
</svg>
